<?xml version="1.0" standalone="no"?><svg xmlns:xlink="http://www.w3.org/1999/xlink" xmlns="http://www.w3.org/2000/svg" viewBox="0 0 1000 700.0026888707639" preserveAspectRatio="xMaxYMax slice"><g transform="scale(0.8962902546360613)"><rect x="0" y="0" width="1115.7142857142858" height="781" fill="#ffffff"/><rect x="167.35714285714286" y="55.785714285714285" width="55.785714285714285" height="55.785714285714285" fill="#ffffff"/><rect x="195.25" y="55.79" width="27.89" height="27.89" fill="#fbfbfb"/><rect x="725.2142857142857" y="55.785714285714285" width="55.785714285714285" height="55.785714285714285" fill="#ffffff"/><rect x="753.11" y="83.68" width="27.89" height="27.89" fill="#fbfbfb"/><rect x="111.57142857142857" y="111.57142857142857" width="55.785714285714285" height="55.785714285714285" fill="#ffffff"/><rect x="390.5" y="111.57142857142857" width="55.785714285714285" height="55.785714285714285" fill="#ffffff"/><rect x="390.5" y="111.57" width="27.89" height="27.89" fill="#fbfbfb"/><rect x="446.2857142857143" y="111.57142857142857" width="55.785714285714285" height="55.785714285714285" fill="#ffffff"/><rect x="446.29" y="139.46" width="27.89" height="27.89" fill="#fdfcfc"/><rect x="502.07142857142856" y="111.57142857142857" width="55.785714285714285" height="55.785714285714285" fill="#ffffff"/><rect x="1004.1428571428571" y="111.57142857142857" width="55.785714285714285" height="55.785714285714285" fill="#ffffff"/><rect x="1004.14" y="111.57" width="27.89" height="27.89" fill="#f5f4f4"/><rect x="1059.9285714285713" y="111.57142857142857" width="55.785714285714285" height="55.785714285714285" fill="#ffffff"/><rect x="55.785714285714285" y="167.35714285714286" width="55.785714285714285" height="55.785714285714285" fill="#ffffff"/><rect x="55.79" y="167.36" width="27.89" height="27.89" fill="#f8f7f6"/><rect x="83.68" y="195.25" width="27.89" height="27.89" fill="#fcfcfc"/><rect x="167.35714285714286" y="167.35714285714286" width="55.785714285714285" height="55.785714285714285" fill="#ffffff"/><rect x="167.36" y="167.36" width="27.89" height="27.89" fill="#f4f3f2"/><rect x="278.92857142857144" y="167.35714285714286" width="55.785714285714285" height="55.785714285714285" fill="#ffffff"/><rect x="306.82" y="167.36" width="27.89" height="27.89" fill="#fcfcfc"/><rect x="278.93" y="195.25" width="27.89" height="27.89" fill="#fcfcfb"/><rect x="334.7142857142857" y="167.35714285714286" width="55.785714285714285" height="55.785714285714285" fill="#ffffff"/><rect x="362.61" y="167.36" width="27.89" height="27.89" fill="#fbfbfb"/><rect x="781" y="167.35714285714286" width="55.785714285714285" height="55.785714285714285" fill="#ffffff"/><rect x="808.89" y="167.36" width="27.89" height="27.89" fill="#f6f6f5"/><rect x="892.5714285714286" y="167.35714285714286" width="55.785714285714285" height="55.785714285714285" fill="#ffffff"/><rect x="1004.1428571428571" y="167.35714285714286" width="55.785714285714285" height="55.785714285714285" fill="#ffffff"/><rect x="1004.14" y="195.25" width="27.89" height="27.89" fill="#fbfbfb"/><rect x="0" y="223.14285714285714" width="55.785714285714285" height="55.785714285714285" fill="#ffffff"/><rect x="557.8571428571429" y="223.14285714285714" width="55.785714285714285" height="55.785714285714285" fill="#ffffff"/><rect x="585.75" y="223.14" width="27.89" height="27.89" fill="#f7f6f6"/><rect x="557.86" y="251.04" width="27.89" height="27.89" fill="#ffffff"/><rect x="669.4285714285714" y="223.14285714285714" width="55.785714285714285" height="55.785714285714285" fill="#ffffff"/><rect x="725.2142857142857" y="223.14285714285714" width="55.785714285714285" height="55.785714285714285" fill="#ffffff"/><rect x="725.21" y="223.14" width="27.89" height="27.89" fill="#ffffff"/><rect x="781" y="223.14285714285714" width="55.785714285714285" height="55.785714285714285" fill="#ffffff"/><rect x="808.89" y="223.14" width="27.89" height="27.89" fill="#fcfcfc"/><rect x="781" y="251.04" width="27.89" height="27.89" fill="#fcfcfc"/><rect x="892.5714285714286" y="223.14285714285714" width="55.785714285714285" height="55.785714285714285" fill="#ffffff"/><rect x="920.46" y="223.14" width="27.89" height="27.89" fill="#fbfbfa"/><rect x="920.46" y="251.04" width="27.89" height="27.89" fill="#fdfdfd"/><rect x="111.57142857142857" y="278.92857142857144" width="55.785714285714285" height="55.785714285714285" fill="#ffffff"/><rect x="111.57" y="278.93" width="27.89" height="27.89" fill="#fdfdfd"/><rect x="139.46" y="278.93" width="27.89" height="27.89" fill="#f4f3f3"/><rect x="139.46" y="306.82" width="27.89" height="27.89" fill="#fbfbfb"/><rect x="167.35714285714286" y="278.92857142857144" width="55.785714285714285" height="55.785714285714285" fill="#ffffff"/><rect x="167.36" y="278.93" width="27.89" height="27.89" fill="#fafafa"/><rect x="167.36" y="306.82" width="27.89" height="27.89" fill="#fefefe"/><rect x="195.25" y="306.82" width="27.89" height="27.89" fill="#fdfdfd"/><rect x="223.14285714285714" y="278.92857142857144" width="55.785714285714285" height="55.785714285714285" fill="#ffffff"/><rect x="223.14" y="306.82" width="27.89" height="27.89" fill="#fcfcfc"/><rect x="446.2857142857143" y="278.92857142857144" width="55.785714285714285" height="55.785714285714285" fill="#ffffff"/><rect x="474.18" y="278.93" width="27.89" height="27.89" fill="#fafafa"/><rect x="474.18" y="306.82" width="27.89" height="27.89" fill="#ffffff"/><rect x="557.8571428571429" y="278.92857142857144" width="55.785714285714285" height="55.785714285714285" fill="#ffffff"/><rect x="557.86" y="278.93" width="27.89" height="27.89" fill="#fdfdfc"/><rect x="585.75" y="278.93" width="27.89" height="27.89" fill="#fbfbfb"/><rect x="557.86" y="306.82" width="27.89" height="27.89" fill="#fbfafa"/><rect x="781" y="278.92857142857144" width="55.785714285714285" height="55.785714285714285" fill="#ffffff"/><rect x="892.5714285714286" y="278.92857142857144" width="55.785714285714285" height="55.785714285714285" fill="#ffffff"/><rect x="920.46" y="278.93" width="27.89" height="27.89" fill="#f5f4f3"/><rect x="920.46" y="306.82" width="27.89" height="27.89" fill="#fdfdfd"/><rect x="948.3571428571429" y="278.92857142857144" width="55.785714285714285" height="55.785714285714285" fill="#ffffff"/><rect x="0" y="334.7142857142857" width="55.785714285714285" height="55.785714285714285" fill="#ffffff"/><rect x="167.35714285714286" y="334.7142857142857" width="55.785714285714285" height="55.785714285714285" fill="#ffffff"/><rect x="167.36" y="334.71" width="27.89" height="27.89" fill="#f7f7f6"/><rect x="167.36" y="362.61" width="27.89" height="27.89" fill="#fbfbfb"/><rect x="195.25" y="362.61" width="27.89" height="27.89" fill="#fcfcfc"/><rect x="223.14285714285714" y="334.7142857142857" width="55.785714285714285" height="55.785714285714285" fill="#ffffff"/><rect x="251.04" y="334.71" width="27.89" height="27.89" fill="#fafaf9"/><rect x="223.14" y="362.61" width="27.89" height="27.89" fill="#fafafa"/><rect x="251.04" y="362.61" width="27.89" height="27.89" fill="#f9f8f8"/><rect x="278.92857142857144" y="334.7142857142857" width="55.785714285714285" height="55.785714285714285" fill="#ffffff"/><rect x="446.2857142857143" y="334.7142857142857" width="55.785714285714285" height="55.785714285714285" fill="#ffffff"/><rect x="502.07142857142856" y="334.7142857142857" width="55.785714285714285" height="55.785714285714285" fill="#ffffff"/><rect x="502.07" y="334.71" width="27.89" height="27.89" fill="#faf9f9"/><rect x="529.96" y="334.71" width="27.89" height="27.89" fill="#fdfdfd"/><rect x="529.96" y="362.61" width="27.89" height="27.89" fill="#fcfcfc"/><rect x="557.8571428571429" y="334.7142857142857" width="55.785714285714285" height="55.785714285714285" fill="#ffffff"/><rect x="585.75" y="334.71" width="27.89" height="27.89" fill="#f9f8f8"/><rect x="585.75" y="362.61" width="27.89" height="27.89" fill="#fbfbfb"/><rect x="613.6428571428571" y="334.7142857142857" width="55.785714285714285" height="55.785714285714285" fill="#ffffff"/><rect x="641.54" y="334.71" width="27.89" height="27.89" fill="#f7f6f5"/><rect x="613.64" y="362.61" width="27.89" height="27.89" fill="#fdfdfd"/><rect x="641.54" y="362.61" width="27.89" height="27.89" fill="#f9f9f9"/><rect x="669.4285714285714" y="334.7142857142857" width="55.785714285714285" height="55.785714285714285" fill="#ffffff"/><rect x="697.32" y="334.71" width="27.89" height="27.89" fill="#f4f3f2"/><rect x="697.32" y="362.61" width="27.89" height="27.89" fill="#f6f5f4"/><rect x="725.2142857142857" y="334.7142857142857" width="55.785714285714285" height="55.785714285714285" fill="#ffffff"/><rect x="725.21" y="362.61" width="27.89" height="27.89" fill="#fcfcfc"/><rect x="753.11" y="362.61" width="27.89" height="27.89" fill="#f4f3f2"/><rect x="0" y="390.5" width="55.785714285714285" height="55.785714285714285" fill="#ffffff"/><rect x="27.89" y="390.5" width="27.89" height="27.89" fill="#fdfdfd"/><rect x="0" y="418.39" width="27.89" height="27.89" fill="#fefefe"/><rect x="27.89" y="418.39" width="27.89" height="27.89" fill="#f4f3f2"/><rect x="111.57142857142857" y="390.5" width="55.785714285714285" height="55.785714285714285" fill="#ffffff"/><rect x="111.57" y="390.5" width="27.89" height="27.89" fill="#fcfcfc"/><rect x="139.46" y="390.5" width="27.89" height="27.89" fill="#fcfcfc"/><rect x="111.57" y="418.39" width="27.89" height="27.89" fill="#fcfcfc"/><rect x="167.35714285714286" y="390.5" width="55.785714285714285" height="55.785714285714285" fill="#ffffff"/><rect x="195.25" y="390.5" width="27.89" height="27.89" fill="#fbfbfb"/><rect x="167.36" y="418.39" width="27.89" height="27.89" fill="#f6f5f4"/><rect x="278.92857142857144" y="390.5" width="55.785714285714285" height="55.785714285714285" fill="#ffffff"/><rect x="278.93" y="390.5" width="27.89" height="27.89" fill="#fbfbfb"/><rect x="306.82" y="390.5" width="27.89" height="27.89" fill="#f4f3f2"/><rect x="306.82" y="418.39" width="27.89" height="27.89" fill="#fefefe"/><rect x="390.5" y="390.5" width="55.785714285714285" height="55.785714285714285" fill="#ffffff"/><rect x="418.39" y="418.39" width="27.89" height="27.89" fill="#f8f7f7"/><rect x="446.2857142857143" y="390.5" width="55.785714285714285" height="55.785714285714285" fill="#ffffff"/><rect x="446.29" y="390.5" width="27.89" height="27.89" fill="#f5f4f3"/><rect x="474.18" y="390.5" width="27.89" height="27.89" fill="#fdfdfd"/><rect x="446.29" y="418.39" width="27.89" height="27.89" fill="#f5f4f3"/><rect x="474.18" y="418.39" width="27.89" height="27.89" fill="#f6f5f4"/><rect x="502.07142857142856" y="390.5" width="55.785714285714285" height="55.785714285714285" fill="#ffffff"/><rect x="502.07" y="390.5" width="27.89" height="27.89" fill="#fafafa"/><rect x="529.96" y="390.5" width="27.89" height="27.89" fill="#f4f3f2"/><rect x="502.07" y="418.39" width="27.89" height="27.89" fill="#fcfcfc"/><rect x="557.8571428571429" y="390.5" width="55.785714285714285" height="55.785714285714285" fill="#ffffff"/><rect x="557.86" y="390.5" width="27.89" height="27.89" fill="#fdfdfd"/><rect x="557.86" y="418.39" width="27.89" height="27.89" fill="#faf9f9"/><rect x="613.6428571428571" y="390.5" width="55.785714285714285" height="55.785714285714285" fill="#ffffff"/><rect x="613.64" y="390.5" width="27.89" height="27.89" fill="#fcfcfc"/><rect x="641.54" y="418.39" width="27.89" height="27.89" fill="#f6f5f5"/><rect x="669.4285714285714" y="390.5" width="55.785714285714285" height="55.785714285714285" fill="#ffffff"/><rect x="669.43" y="390.5" width="27.89" height="27.89" fill="#fcfcfc"/><rect x="781" y="390.5" width="55.785714285714285" height="55.785714285714285" fill="#ffffff"/><rect x="781" y="390.5" width="27.89" height="27.89" fill="#fefefe"/><rect x="808.89" y="390.5" width="27.89" height="27.89" fill="#f4f3f2"/><rect x="781" y="418.39" width="27.89" height="27.89" fill="#fdfdfd"/><rect x="808.89" y="418.39" width="27.89" height="27.89" fill="#fdfdfd"/><rect x="892.5714285714286" y="390.5" width="55.785714285714285" height="55.785714285714285" fill="#ffffff"/><rect x="892.57" y="390.5" width="27.89" height="27.89" fill="#fcfcfc"/><rect x="892.57" y="418.39" width="27.89" height="27.89" fill="#fcfcfc"/><rect x="920.46" y="418.39" width="27.89" height="27.89" fill="#ffffff"/><rect x="1004.1428571428571" y="390.5" width="55.785714285714285" height="55.785714285714285" fill="#ffffff"/><rect x="1004.14" y="390.5" width="27.89" height="27.89" fill="#fefefe"/><rect x="1004.14" y="418.39" width="27.89" height="27.89" fill="#f6f5f4"/><rect x="1059.9285714285713" y="390.5" width="55.785714285714285" height="55.785714285714285" fill="#ffffff"/><rect x="1059.93" y="390.5" width="27.89" height="27.89" fill="#fcfcfc"/><rect x="1087.82" y="390.5" width="27.89" height="27.89" fill="#fdfdfd"/><rect x="1087.82" y="418.39" width="27.89" height="27.89" fill="#fdfdfd"/><rect x="0" y="446.2857142857143" width="55.785714285714285" height="55.785714285714285" fill="#ffffff"/><rect x="0" y="474.18" width="27.89" height="27.89" fill="#fafafa"/><rect x="167.35714285714286" y="446.2857142857143" width="55.785714285714285" height="55.785714285714285" fill="#ffffff"/><rect x="167.36" y="446.29" width="27.89" height="27.89" fill="#f8f8f7"/><rect x="195.25" y="474.18" width="27.89" height="27.89" fill="#fcfcfc"/><rect x="223.14285714285714" y="446.2857142857143" width="55.785714285714285" height="55.785714285714285" fill="#ffffff"/><rect x="223.14" y="446.29" width="27.89" height="27.89" fill="#f6f5f4"/><rect x="251.04" y="446.29" width="27.89" height="27.89" fill="#fafafa"/><rect x="223.14" y="474.18" width="27.89" height="27.89" fill="#f4f3f2"/><rect x="334.7142857142857" y="446.2857142857143" width="55.785714285714285" height="55.785714285714285" fill="#ffffff"/><rect x="334.71" y="446.29" width="27.89" height="27.89" fill="#fbfafa"/><rect x="362.61" y="446.29" width="27.89" height="27.89" fill="#fcfcfc"/><rect x="334.71" y="474.18" width="27.89" height="27.89" fill="#f4f3f2"/><rect x="362.61" y="474.18" width="27.89" height="27.89" fill="#fffffe"/><rect x="390.5" y="446.2857142857143" width="55.785714285714285" height="55.785714285714285" fill="#ffffff"/><rect x="418.39" y="446.29" width="27.89" height="27.89" fill="#f8f7f7"/><rect x="502.07142857142856" y="446.2857142857143" width="55.785714285714285" height="55.785714285714285" fill="#ffffff"/><rect x="502.07" y="446.29" width="27.89" height="27.89" fill="#fcfcfc"/><rect x="502.07" y="474.18" width="27.89" height="27.89" fill="#fbfbfb"/><rect x="557.8571428571429" y="446.2857142857143" width="55.785714285714285" height="55.785714285714285" fill="#ffffff"/><rect x="557.86" y="446.29" width="27.89" height="27.89" fill="#f9f8f8"/><rect x="585.75" y="474.18" width="27.89" height="27.89" fill="#fcfcfc"/><rect x="613.6428571428571" y="446.2857142857143" width="55.785714285714285" height="55.785714285714285" fill="#ffffff"/><rect x="613.64" y="446.29" width="27.89" height="27.89" fill="#fbfbfb"/><rect x="641.54" y="446.29" width="27.89" height="27.89" fill="#fdfdfd"/><rect x="613.64" y="474.18" width="27.89" height="27.89" fill="#fefefe"/><rect x="669.4285714285714" y="446.2857142857143" width="55.785714285714285" height="55.785714285714285" fill="#ffffff"/><rect x="669.43" y="446.29" width="27.89" height="27.89" fill="#fbfafa"/><rect x="669.43" y="474.18" width="27.89" height="27.89" fill="#fefefe"/><rect x="725.2142857142857" y="446.2857142857143" width="55.785714285714285" height="55.785714285714285" fill="#ffffff"/><rect x="725.21" y="474.18" width="27.89" height="27.89" fill="#fefefe"/><rect x="753.11" y="474.18" width="27.89" height="27.89" fill="#fdfdfd"/><rect x="892.5714285714286" y="446.2857142857143" width="55.785714285714285" height="55.785714285714285" fill="#ffffff"/><rect x="892.57" y="446.29" width="27.89" height="27.89" fill="#fdfdfd"/><rect x="920.46" y="446.29" width="27.89" height="27.89" fill="#fefefe"/><rect x="920.46" y="474.18" width="27.89" height="27.89" fill="#f9f9f8"/><rect x="948.3571428571429" y="446.2857142857143" width="55.785714285714285" height="55.785714285714285" fill="#ffffff"/><rect x="948.36" y="446.29" width="27.89" height="27.89" fill="#f4f4f3"/><rect x="976.25" y="446.29" width="27.89" height="27.89" fill="#ffffff"/><rect x="1004.1428571428571" y="446.2857142857143" width="55.785714285714285" height="55.785714285714285" fill="#ffffff"/><rect x="1032.04" y="446.29" width="27.89" height="27.89" fill="#fdfdfd"/><rect x="1004.14" y="474.18" width="27.89" height="27.89" fill="#fdfdfd"/><rect x="1032.04" y="474.18" width="27.89" height="27.89" fill="#fefefe"/><rect x="0" y="502.07142857142856" width="55.785714285714285" height="55.785714285714285" fill="#ffffff"/><rect x="0" y="502.07" width="27.89" height="27.89" fill="#f6f5f5"/><rect x="55.785714285714285" y="502.07142857142856" width="55.785714285714285" height="55.785714285714285" fill="#ffffff"/><rect x="55.79" y="502.07" width="27.89" height="27.89" fill="#fcfcfb"/><rect x="83.68" y="502.07" width="27.89" height="27.89" fill="#fffefe"/><rect x="55.79" y="529.96" width="27.89" height="27.89" fill="#fdfcfc"/><rect x="83.68" y="529.96" width="27.89" height="27.89" fill="#fbfbfb"/><rect x="111.57142857142857" y="502.07142857142856" width="55.785714285714285" height="55.785714285714285" fill="#ffffff"/><rect x="139.46" y="502.07" width="27.89" height="27.89" fill="#fafafa"/><rect x="111.57" y="529.96" width="27.89" height="27.89" fill="#fcfcfc"/><rect x="139.46" y="529.96" width="27.89" height="27.89" fill="#fefefe"/><rect x="167.35714285714286" y="502.07142857142856" width="55.785714285714285" height="55.785714285714285" fill="#ffffff"/><rect x="167.36" y="502.07" width="27.89" height="27.89" fill="#f4f3f2"/><rect x="167.36" y="529.96" width="27.89" height="27.89" fill="#f4f3f2"/><rect x="223.14285714285714" y="502.07142857142856" width="55.785714285714285" height="55.785714285714285" fill="#ffffff"/><rect x="223.14" y="502.07" width="27.89" height="27.89" fill="#fefefe"/><rect x="251.04" y="502.07" width="27.89" height="27.89" fill="#fafafa"/><rect x="223.14" y="529.96" width="27.89" height="27.89" fill="#fafafa"/><rect x="278.92857142857144" y="502.07142857142856" width="55.785714285714285" height="55.785714285714285" fill="#ffffff"/><rect x="278.93" y="502.07" width="27.89" height="27.89" fill="#f5f4f3"/><rect x="306.82" y="529.96" width="27.89" height="27.89" fill="#f7f6f6"/><rect x="334.7142857142857" y="502.07142857142856" width="55.785714285714285" height="55.785714285714285" fill="#ffffff"/><rect x="334.71" y="502.07" width="27.89" height="27.89" fill="#fdfdfd"/><rect x="362.61" y="502.07" width="27.89" height="27.89" fill="#f7f6f5"/><rect x="362.61" y="529.96" width="27.89" height="27.89" fill="#f5f5f4"/><rect x="446.2857142857143" y="502.07142857142856" width="55.785714285714285" height="55.785714285714285" fill="#ffffff"/><rect x="446.29" y="502.07" width="27.89" height="27.89" fill="#fafafa"/><rect x="474.18" y="502.07" width="27.89" height="27.89" fill="#fdfdfd"/><rect x="446.29" y="529.96" width="27.89" height="27.89" fill="#f7f7f6"/><rect x="613.6428571428571" y="502.07142857142856" width="55.785714285714285" height="55.785714285714285" fill="#ffffff"/><rect x="641.54" y="502.07" width="27.89" height="27.89" fill="#f4f3f2"/><rect x="613.64" y="529.96" width="27.89" height="27.89" fill="#fcfcfc"/><rect x="641.54" y="529.96" width="27.89" height="27.89" fill="#fbfbfb"/><rect x="669.4285714285714" y="502.07142857142856" width="55.785714285714285" height="55.785714285714285" fill="#ffffff"/><rect x="669.43" y="502.07" width="27.89" height="27.89" fill="#f4f3f2"/><rect x="697.32" y="502.07" width="27.89" height="27.89" fill="#fcfcfc"/><rect x="669.43" y="529.96" width="27.89" height="27.89" fill="#fdfdfd"/><rect x="697.32" y="529.96" width="27.89" height="27.89" fill="#f5f4f4"/><rect x="725.2142857142857" y="502.07142857142856" width="55.785714285714285" height="55.785714285714285" fill="#ffffff"/><rect x="725.21" y="502.07" width="27.89" height="27.89" fill="#fcfcfc"/><rect x="753.11" y="502.07" width="27.89" height="27.89" fill="#fafafa"/><rect x="725.21" y="529.96" width="27.89" height="27.89" fill="#fcfcfc"/><rect x="753.11" y="529.96" width="27.89" height="27.89" fill="#fbfbfb"/><rect x="781" y="502.07142857142856" width="55.785714285714285" height="55.785714285714285" fill="#ffffff"/><rect x="808.89" y="502.07" width="27.89" height="27.89" fill="#fbfbfb"/><rect x="781" y="529.96" width="27.89" height="27.89" fill="#f4f3f2"/><rect x="836.7857142857142" y="502.07142857142856" width="55.785714285714285" height="55.785714285714285" fill="#ffffff"/><rect x="836.79" y="502.07" width="27.89" height="27.89" fill="#ffffff"/><rect x="864.68" y="502.07" width="27.89" height="27.89" fill="#f4f3f2"/><rect x="836.79" y="529.96" width="27.89" height="27.89" fill="#fbfbfb"/><rect x="864.68" y="529.96" width="27.89" height="27.89" fill="#fefefe"/><rect x="892.5714285714286" y="502.07142857142856" width="55.785714285714285" height="55.785714285714285" fill="#ffffff"/><rect x="892.57" y="502.07" width="27.89" height="27.89" fill="#fafafa"/><rect x="892.57" y="529.96" width="27.89" height="27.89" fill="#fbfbfb"/><rect x="948.3571428571429" y="502.07142857142856" width="55.785714285714285" height="55.785714285714285" fill="#ffffff"/><rect x="976.25" y="502.07" width="27.89" height="27.89" fill="#fafaf9"/><rect x="1004.1428571428571" y="502.07142857142856" width="55.785714285714285" height="55.785714285714285" fill="#ffffff"/><rect x="1032.04" y="502.07" width="27.89" height="27.89" fill="#f9f9f9"/><rect x="1032.04" y="529.96" width="27.89" height="27.89" fill="#f9f8f8"/><rect x="1059.9285714285713" y="502.07142857142856" width="55.785714285714285" height="55.785714285714285" fill="#ffffff"/><rect x="1059.93" y="529.96" width="27.89" height="27.89" fill="#ffffff"/><rect x="1087.82" y="529.96" width="27.89" height="27.89" fill="#fdfdfd"/><rect x="0" y="557.8571428571429" width="55.785714285714285" height="55.785714285714285" fill="#ffffff"/><rect x="0" y="557.86" width="27.89" height="27.89" fill="#f7f6f5"/><rect x="0" y="585.75" width="27.89" height="27.89" fill="#fdfdfc"/><rect x="27.89" y="585.75" width="27.89" height="27.89" fill="#fcfcfc"/><rect x="55.785714285714285" y="557.8571428571429" width="55.785714285714285" height="55.785714285714285" fill="#ffffff"/><rect x="55.79" y="557.86" width="27.89" height="27.89" fill="#fdfdfc"/><rect x="83.68" y="557.86" width="27.89" height="27.89" fill="#f9f8f8"/><rect x="55.79" y="585.75" width="27.89" height="27.89" fill="#f9f9f8"/><rect x="83.68" y="585.75" width="27.89" height="27.89" fill="#fcfcfc"/><rect x="111.57142857142857" y="557.8571428571429" width="55.785714285714285" height="55.785714285714285" fill="#ffffff"/><rect x="111.57" y="557.86" width="27.89" height="27.89" fill="#fefefe"/><rect x="139.46" y="585.75" width="27.89" height="27.89" fill="#f6f6f5"/><rect x="167.35714285714286" y="557.8571428571429" width="55.785714285714285" height="55.785714285714285" fill="#ffffff"/><rect x="167.36" y="557.86" width="27.89" height="27.89" fill="#fcfcfc"/><rect x="195.25" y="557.86" width="27.89" height="27.89" fill="#fdfcfc"/><rect x="167.36" y="585.75" width="27.89" height="27.89" fill="#fbfbfb"/><rect x="195.25" y="585.75" width="27.89" height="27.89" fill="#fdfdfd"/><rect x="223.14285714285714" y="557.8571428571429" width="55.785714285714285" height="55.785714285714285" fill="#ffffff"/><rect x="223.14" y="557.86" width="27.89" height="27.89" fill="#fbfbfb"/><rect x="251.04" y="585.75" width="27.89" height="27.89" fill="#f7f7f6"/><rect x="334.7142857142857" y="557.8571428571429" width="55.785714285714285" height="55.785714285714285" fill="#ffffff"/><rect x="334.71" y="557.86" width="27.89" height="27.89" fill="#fbfbfb"/><rect x="362.61" y="557.86" width="27.89" height="27.89" fill="#fafafa"/><rect x="334.71" y="585.75" width="27.89" height="27.89" fill="#fefefe"/><rect x="362.61" y="585.75" width="27.89" height="27.89" fill="#f9f8f8"/><rect x="390.5" y="557.8571428571429" width="55.785714285714285" height="55.785714285714285" fill="#ffffff"/><rect x="390.5" y="557.86" width="27.89" height="27.89" fill="#ffffff"/><rect x="390.5" y="585.75" width="27.89" height="27.89" fill="#fefefe"/><rect x="418.39" y="585.75" width="27.89" height="27.89" fill="#f4f3f2"/><rect x="446.2857142857143" y="557.8571428571429" width="55.785714285714285" height="55.785714285714285" fill="#ffffff"/><rect x="446.29" y="557.86" width="27.89" height="27.89" fill="#f3f2f1"/><rect x="474.18" y="557.86" width="27.89" height="27.89" fill="#ffffff"/><rect x="446.29" y="585.75" width="27.89" height="27.89" fill="#ffffff"/><rect x="474.18" y="585.75" width="27.89" height="27.89" fill="#f8f7f7"/><rect x="502.07142857142856" y="557.8571428571429" width="55.785714285714285" height="55.785714285714285" fill="#ffffff"/><rect x="502.07" y="557.86" width="27.89" height="27.89" fill="#fdfdfd"/><rect x="529.96" y="557.86" width="27.89" height="27.89" fill="#fefefe"/><rect x="502.07" y="585.75" width="27.89" height="27.89" fill="#fbfbfb"/><rect x="529.96" y="585.75" width="27.89" height="27.89" fill="#f8f7f6"/><rect x="557.8571428571429" y="557.8571428571429" width="55.785714285714285" height="55.785714285714285" fill="#ffffff"/><rect x="557.86" y="557.86" width="27.89" height="27.89" fill="#fcfcfc"/><rect x="557.86" y="585.75" width="27.89" height="27.89" fill="#fefefe"/><rect x="585.75" y="585.75" width="27.89" height="27.89" fill="#fbfbfb"/><rect x="613.6428571428571" y="557.8571428571429" width="55.785714285714285" height="55.785714285714285" fill="#ffffff"/><rect x="613.64" y="585.75" width="27.89" height="27.89" fill="#fbfafa"/><rect x="641.54" y="585.75" width="27.89" height="27.89" fill="#fefefe"/><rect x="669.4285714285714" y="557.8571428571429" width="55.785714285714285" height="55.785714285714285" fill="#ffffff"/><rect x="669.43" y="557.86" width="27.89" height="27.89" fill="#fafafa"/><rect x="697.32" y="557.86" width="27.89" height="27.89" fill="#fcfcfc"/><rect x="669.43" y="585.75" width="27.89" height="27.89" fill="#fbfbfb"/><rect x="697.32" y="585.75" width="27.89" height="27.89" fill="#fdfdfd"/><rect x="725.2142857142857" y="557.8571428571429" width="55.785714285714285" height="55.785714285714285" fill="#ffffff"/><rect x="725.21" y="557.86" width="27.89" height="27.89" fill="#fcfbfb"/><rect x="753.11" y="557.86" width="27.89" height="27.89" fill="#fefefe"/><rect x="725.21" y="585.75" width="27.89" height="27.89" fill="#fdfdfd"/><rect x="753.11" y="585.75" width="27.89" height="27.89" fill="#fdfdfd"/><rect x="781" y="557.8571428571429" width="55.785714285714285" height="55.785714285714285" fill="#ffffff"/><rect x="781" y="557.86" width="27.89" height="27.89" fill="#ffffff"/><rect x="781" y="585.75" width="27.89" height="27.89" fill="#f5f4f3"/><rect x="808.89" y="585.75" width="27.89" height="27.89" fill="#fdfdfd"/><rect x="836.7857142857142" y="557.8571428571429" width="55.785714285714285" height="55.785714285714285" fill="#ffffff"/><rect x="836.79" y="557.86" width="27.89" height="27.89" fill="#fdfdfd"/><rect x="836.79" y="585.75" width="27.89" height="27.89" fill="#fefefe"/><rect x="864.68" y="585.75" width="27.89" height="27.89" fill="#fdfdfc"/><rect x="892.5714285714286" y="557.8571428571429" width="55.785714285714285" height="55.785714285714285" fill="#ffffff"/><rect x="892.57" y="557.86" width="27.89" height="27.89" fill="#fbfbfb"/><rect x="920.46" y="557.86" width="27.89" height="27.89" fill="#fafafa"/><rect x="892.57" y="585.75" width="27.89" height="27.89" fill="#fdfdfd"/><rect x="920.46" y="585.75" width="27.89" height="27.89" fill="#fcfcfc"/><rect x="948.3571428571429" y="557.8571428571429" width="55.785714285714285" height="55.785714285714285" fill="#ffffff"/><rect x="948.36" y="557.86" width="27.89" height="27.89" fill="#fcfcfc"/><rect x="976.25" y="557.86" width="27.89" height="27.89" fill="#fdfdfd"/><rect x="948.36" y="585.75" width="27.89" height="27.89" fill="#fbfbfb"/><rect x="1004.1428571428571" y="557.8571428571429" width="55.785714285714285" height="55.785714285714285" fill="#ffffff"/><rect x="1004.14" y="557.86" width="27.89" height="27.89" fill="#f5f5f4"/><rect x="1032.04" y="557.86" width="27.89" height="27.89" fill="#fcfcfb"/><rect x="1004.14" y="585.75" width="27.89" height="27.89" fill="#fefefe"/><rect x="1032.04" y="585.75" width="27.89" height="27.89" fill="#fdfdfd"/><rect x="55.785714285714285" y="613.6428571428571" width="55.785714285714285" height="55.785714285714285" fill="#ffffff"/><rect x="55.79" y="613.64" width="27.89" height="27.89" fill="#fafafa"/><rect x="83.68" y="613.64" width="27.89" height="27.89" fill="#fbfbfb"/><rect x="55.79" y="641.54" width="27.89" height="27.89" fill="#f4f3f2"/><rect x="83.68" y="641.54" width="27.89" height="27.89" fill="#fcfcfc"/><rect x="111.57142857142857" y="613.6428571428571" width="55.785714285714285" height="55.785714285714285" fill="#ffffff"/><rect x="139.46" y="613.64" width="27.89" height="27.89" fill="#fbfbfb"/><rect x="111.57" y="641.54" width="27.89" height="27.89" fill="#fdfdfd"/><rect x="139.46" y="641.54" width="27.89" height="27.89" fill="#fcfcfc"/><rect x="167.35714285714286" y="613.6428571428571" width="55.785714285714285" height="55.785714285714285" fill="#ffffff"/><rect x="195.25" y="613.64" width="27.89" height="27.89" fill="#f4f3f2"/><rect x="167.36" y="641.54" width="27.89" height="27.89" fill="#fbfbfb"/><rect x="195.25" y="641.54" width="27.89" height="27.89" fill="#fcfcfc"/><rect x="223.14285714285714" y="613.6428571428571" width="55.785714285714285" height="55.785714285714285" fill="#ffffff"/><rect x="223.14" y="613.64" width="27.89" height="27.89" fill="#ffffff"/><rect x="251.04" y="613.64" width="27.89" height="27.89" fill="#fefefe"/><rect x="223.14" y="641.54" width="27.89" height="27.89" fill="#fcfcfc"/><rect x="251.04" y="641.54" width="27.89" height="27.89" fill="#ffffff"/><rect x="278.92857142857144" y="613.6428571428571" width="55.785714285714285" height="55.785714285714285" fill="#ffffff"/><rect x="278.93" y="613.64" width="27.89" height="27.89" fill="#f8f7f7"/><rect x="306.82" y="613.64" width="27.89" height="27.89" fill="#fbfbfb"/><rect x="278.93" y="641.54" width="27.89" height="27.89" fill="#f7f6f5"/><rect x="306.82" y="641.54" width="27.89" height="27.89" fill="#fcfcfc"/><rect x="390.5" y="613.6428571428571" width="55.785714285714285" height="55.785714285714285" fill="#ffffff"/><rect x="390.5" y="613.64" width="27.89" height="27.89" fill="#fcfcfc"/><rect x="418.39" y="613.64" width="27.89" height="27.89" fill="#fafafa"/><rect x="390.5" y="641.54" width="27.89" height="27.89" fill="#f9f8f8"/><rect x="418.39" y="641.54" width="27.89" height="27.89" fill="#fefefe"/><rect x="446.2857142857143" y="613.6428571428571" width="55.785714285714285" height="55.785714285714285" fill="#ffffff"/><rect x="446.29" y="613.64" width="27.89" height="27.89" fill="#fefefe"/><rect x="474.18" y="613.64" width="27.89" height="27.89" fill="#fbfbfa"/><rect x="446.29" y="641.54" width="27.89" height="27.89" fill="#fcfcfc"/><rect x="502.07142857142856" y="613.6428571428571" width="55.785714285714285" height="55.785714285714285" fill="#ffffff"/><rect x="502.07" y="613.64" width="27.89" height="27.89" fill="#fbfbfb"/><rect x="502.07" y="641.54" width="27.89" height="27.89" fill="#f3f3f2"/><rect x="529.96" y="641.54" width="27.89" height="27.89" fill="#f9f9f8"/><rect x="557.8571428571429" y="613.6428571428571" width="55.785714285714285" height="55.785714285714285" fill="#ffffff"/><rect x="557.86" y="613.64" width="27.89" height="27.89" fill="#fcfbfb"/><rect x="585.75" y="613.64" width="27.89" height="27.89" fill="#fefefe"/><rect x="557.86" y="641.54" width="27.89" height="27.89" fill="#f4f3f2"/><rect x="585.75" y="641.54" width="27.89" height="27.89" fill="#fcfcfc"/><rect x="669.4285714285714" y="613.6428571428571" width="55.785714285714285" height="55.785714285714285" fill="#ffffff"/><rect x="669.43" y="613.64" width="27.89" height="27.89" fill="#f8f7f7"/><rect x="697.32" y="613.64" width="27.89" height="27.89" fill="#fafafa"/><rect x="669.43" y="641.54" width="27.89" height="27.89" fill="#fcfcfc"/><rect x="697.32" y="641.54" width="27.89" height="27.89" fill="#fefefe"/><rect x="725.2142857142857" y="613.6428571428571" width="55.785714285714285" height="55.785714285714285" fill="#ffffff"/><rect x="725.21" y="613.64" width="27.89" height="27.89" fill="#fdfdfd"/><rect x="753.11" y="613.64" width="27.89" height="27.89" fill="#f6f5f4"/><rect x="725.21" y="641.54" width="27.89" height="27.89" fill="#ffffff"/><rect x="753.11" y="641.54" width="27.89" height="27.89" fill="#fefefe"/><rect x="781" y="613.6428571428571" width="55.785714285714285" height="55.785714285714285" fill="#ffffff"/><rect x="781" y="613.64" width="27.89" height="27.89" fill="#fbfbfb"/><rect x="808.89" y="613.64" width="27.89" height="27.89" fill="#f9f9f8"/><rect x="781" y="641.54" width="27.89" height="27.89" fill="#f8f8f7"/><rect x="808.89" y="641.54" width="27.89" height="27.89" fill="#fefefe"/><rect x="836.7857142857142" y="613.6428571428571" width="55.785714285714285" height="55.785714285714285" fill="#ffffff"/><rect x="836.79" y="613.64" width="27.89" height="27.89" fill="#fefefe"/><rect x="864.68" y="613.64" width="27.89" height="27.89" fill="#fdfdfd"/><rect x="836.79" y="641.54" width="27.89" height="27.89" fill="#f8f8f7"/><rect x="864.68" y="641.54" width="27.89" height="27.89" fill="#fefefe"/><rect x="892.5714285714286" y="613.6428571428571" width="55.785714285714285" height="55.785714285714285" fill="#ffffff"/><rect x="892.57" y="613.64" width="27.89" height="27.89" fill="#fdfdfd"/><rect x="920.46" y="613.64" width="27.89" height="27.89" fill="#f6f5f4"/><rect x="892.57" y="641.54" width="27.89" height="27.89" fill="#fdfdfd"/><rect x="920.46" y="641.54" width="27.89" height="27.89" fill="#fafafa"/><rect x="948.3571428571429" y="613.6428571428571" width="55.785714285714285" height="55.785714285714285" fill="#ffffff"/><rect x="948.36" y="613.64" width="27.89" height="27.89" fill="#f5f4f3"/><rect x="976.25" y="613.64" width="27.89" height="27.89" fill="#fbfbfb"/><rect x="948.36" y="641.54" width="27.89" height="27.89" fill="#f4f3f2"/><rect x="976.25" y="641.54" width="27.89" height="27.89" fill="#fcfbfb"/><rect x="1004.1428571428571" y="613.6428571428571" width="55.785714285714285" height="55.785714285714285" fill="#ffffff"/><rect x="1004.14" y="613.64" width="27.89" height="27.89" fill="#fafafa"/><rect x="1032.04" y="613.64" width="27.89" height="27.89" fill="#fcfcfc"/><rect x="1004.14" y="641.54" width="27.89" height="27.89" fill="#f7f7f6"/><rect x="1032.04" y="641.54" width="27.89" height="27.89" fill="#fafaf9"/><rect x="1059.9285714285713" y="613.6428571428571" width="55.785714285714285" height="55.785714285714285" fill="#ffffff"/><rect x="1059.93" y="613.64" width="27.89" height="27.89" fill="#ffffff"/><rect x="1087.82" y="613.64" width="27.89" height="27.89" fill="#fbfbfb"/><rect x="1059.93" y="641.54" width="27.89" height="27.89" fill="#fafaf9"/><rect x="1087.82" y="641.54" width="27.89" height="27.89" fill="#fefefe"/><rect x="0" y="669.4285714285714" width="55.785714285714285" height="55.785714285714285" fill="#ffffff"/><rect x="0" y="669.43" width="27.89" height="27.89" fill="#fcfcfc"/><rect x="27.89" y="669.43" width="27.89" height="27.89" fill="#f8f8f7"/><rect x="0" y="697.32" width="27.89" height="27.89" fill="#f8f7f7"/><rect x="27.89" y="697.32" width="27.89" height="27.89" fill="#fcfcfc"/><rect x="55.785714285714285" y="669.4285714285714" width="55.785714285714285" height="55.785714285714285" fill="#ffffff"/><rect x="55.79" y="669.43" width="27.89" height="27.89" fill="#fdfcfc"/><rect x="83.68" y="669.43" width="27.89" height="27.89" fill="#fbfbfb"/><rect x="55.79" y="697.32" width="27.89" height="27.89" fill="#fbfbfb"/><rect x="83.68" y="697.32" width="27.89" height="27.89" fill="#f8f7f7"/><rect x="111.57142857142857" y="669.4285714285714" width="55.785714285714285" height="55.785714285714285" fill="#ffffff"/><rect x="111.57" y="669.43" width="27.89" height="27.89" fill="#fefefe"/><rect x="139.46" y="669.43" width="27.89" height="27.89" fill="#fafafa"/><rect x="111.57" y="697.32" width="27.89" height="27.89" fill="#f8f7f7"/><rect x="139.46" y="697.32" width="27.89" height="27.89" fill="#fefefe"/><rect x="167.35714285714286" y="669.4285714285714" width="55.785714285714285" height="55.785714285714285" fill="#ffffff"/><rect x="167.36" y="669.43" width="27.89" height="27.89" fill="#fafafa"/><rect x="195.25" y="669.43" width="27.89" height="27.89" fill="#fafafa"/><rect x="167.36" y="697.32" width="27.89" height="27.89" fill="#f6f5f5"/><rect x="195.25" y="697.32" width="27.89" height="27.89" fill="#ffffff"/><rect x="223.14285714285714" y="669.4285714285714" width="55.785714285714285" height="55.785714285714285" fill="#ffffff"/><rect x="223.14" y="669.43" width="27.89" height="27.89" fill="#f6f5f5"/><rect x="251.04" y="669.43" width="27.89" height="27.89" fill="#fefefe"/><rect x="223.14" y="697.32" width="27.89" height="27.89" fill="#fdfdfd"/><rect x="251.04" y="697.32" width="27.89" height="27.89" fill="#fefefe"/><rect x="278.92857142857144" y="669.4285714285714" width="55.785714285714285" height="55.785714285714285" fill="#ffffff"/><rect x="278.93" y="669.43" width="27.89" height="27.89" fill="#fbfbfb"/><rect x="306.82" y="669.43" width="27.89" height="27.89" fill="#fefefe"/><rect x="278.93" y="697.32" width="27.89" height="27.89" fill="#f5f5f4"/><rect x="306.82" y="697.32" width="27.89" height="27.89" fill="#fbfbfb"/><rect x="334.7142857142857" y="669.4285714285714" width="55.785714285714285" height="55.785714285714285" fill="#ffffff"/><rect x="334.71" y="669.43" width="27.89" height="27.89" fill="#fafafa"/><rect x="362.61" y="669.43" width="27.89" height="27.89" fill="#fdfdfd"/><rect x="334.71" y="697.32" width="27.89" height="27.89" fill="#fafafa"/><rect x="362.61" y="697.32" width="27.89" height="27.89" fill="#f7f7f6"/><rect x="390.5" y="669.4285714285714" width="55.785714285714285" height="55.785714285714285" fill="#ffffff"/><rect x="390.5" y="669.43" width="27.89" height="27.89" fill="#f8f7f7"/><rect x="418.39" y="669.43" width="27.89" height="27.89" fill="#fefefe"/><rect x="390.5" y="697.32" width="27.89" height="27.89" fill="#fbfbfb"/><rect x="418.39" y="697.32" width="27.89" height="27.89" fill="#fefefe"/><rect x="446.2857142857143" y="669.4285714285714" width="55.785714285714285" height="55.785714285714285" fill="#ffffff"/><rect x="446.29" y="669.43" width="27.89" height="27.89" fill="#fbfbfb"/><rect x="474.18" y="669.43" width="27.89" height="27.89" fill="#fcfcfc"/><rect x="446.29" y="697.32" width="27.89" height="27.89" fill="#f8f8f7"/><rect x="474.18" y="697.32" width="27.89" height="27.89" fill="#f3f2f1"/><rect x="502.07142857142856" y="669.4285714285714" width="55.785714285714285" height="55.785714285714285" fill="#ffffff"/><rect x="502.07" y="669.43" width="27.89" height="27.89" fill="#fcfcfc"/><rect x="529.96" y="669.43" width="27.89" height="27.89" fill="#fefefe"/><rect x="502.07" y="697.32" width="27.89" height="27.89" fill="#f9f8f8"/><rect x="529.96" y="697.32" width="27.89" height="27.89" fill="#fbfafa"/><rect x="557.8571428571429" y="669.4285714285714" width="55.785714285714285" height="55.785714285714285" fill="#ffffff"/><rect x="557.86" y="669.43" width="27.89" height="27.89" fill="#fcfcfc"/><rect x="585.75" y="669.43" width="27.89" height="27.89" fill="#f8f7f7"/><rect x="557.86" y="697.32" width="27.89" height="27.89" fill="#fcfcfc"/><rect x="585.75" y="697.32" width="27.89" height="27.89" fill="#fcfcfc"/><rect x="613.6428571428571" y="669.4285714285714" width="55.785714285714285" height="55.785714285714285" fill="#ffffff"/><rect x="613.64" y="669.43" width="27.89" height="27.89" fill="#fefefe"/><rect x="641.54" y="669.43" width="27.89" height="27.89" fill="#f4f3f3"/><rect x="613.64" y="697.32" width="27.89" height="27.89" fill="#f3f2f1"/><rect x="641.54" y="697.32" width="27.89" height="27.89" fill="#fefdfd"/><rect x="669.4285714285714" y="669.4285714285714" width="55.785714285714285" height="55.785714285714285" fill="#ffffff"/><rect x="669.43" y="669.43" width="27.89" height="27.89" fill="#fafafa"/><rect x="697.32" y="669.43" width="27.89" height="27.89" fill="#f6f5f5"/><rect x="669.43" y="697.32" width="27.89" height="27.89" fill="#fefefe"/><rect x="697.32" y="697.32" width="27.89" height="27.89" fill="#fefefe"/><rect x="725.2142857142857" y="669.4285714285714" width="55.785714285714285" height="55.785714285714285" fill="#ffffff"/><rect x="725.21" y="669.43" width="27.89" height="27.89" fill="#fbfbfb"/><rect x="753.11" y="669.43" width="27.89" height="27.89" fill="#fefefe"/><rect x="725.21" y="697.32" width="27.89" height="27.89" fill="#fafafa"/><rect x="753.11" y="697.32" width="27.89" height="27.89" fill="#fdfdfd"/><rect x="781" y="669.4285714285714" width="55.785714285714285" height="55.785714285714285" fill="#ffffff"/><rect x="781" y="669.43" width="27.89" height="27.89" fill="#fafaf9"/><rect x="808.89" y="669.43" width="27.89" height="27.89" fill="#fcfcfc"/><rect x="781" y="697.32" width="27.89" height="27.89" fill="#f8f7f7"/><rect x="808.89" y="697.32" width="27.89" height="27.89" fill="#fbfbfb"/><rect x="836.7857142857142" y="669.4285714285714" width="55.785714285714285" height="55.785714285714285" fill="#ffffff"/><rect x="836.79" y="669.43" width="27.89" height="27.89" fill="#fdfdfd"/><rect x="864.68" y="669.43" width="27.89" height="27.89" fill="#fdfcfc"/><rect x="836.79" y="697.32" width="27.89" height="27.89" fill="#f7f7f6"/><rect x="864.68" y="697.32" width="27.89" height="27.89" fill="#f7f6f5"/><rect x="892.5714285714286" y="669.4285714285714" width="55.785714285714285" height="55.785714285714285" fill="#ffffff"/><rect x="892.57" y="669.43" width="27.89" height="27.89" fill="#ffffff"/><rect x="920.46" y="669.43" width="27.89" height="27.89" fill="#fdfdfd"/><rect x="892.57" y="697.32" width="27.89" height="27.89" fill="#fcfcfc"/><rect x="920.46" y="697.32" width="27.89" height="27.89" fill="#f9f9f8"/><rect x="948.3571428571429" y="669.4285714285714" width="55.785714285714285" height="55.785714285714285" fill="#ffffff"/><rect x="948.36" y="669.43" width="27.89" height="27.89" fill="#f3f2f1"/><rect x="976.25" y="669.43" width="27.89" height="27.89" fill="#fefefe"/><rect x="948.36" y="697.32" width="27.89" height="27.89" fill="#f4f3f3"/><rect x="976.25" y="697.32" width="27.89" height="27.89" fill="#fafafa"/><rect x="1004.1428571428571" y="669.4285714285714" width="55.785714285714285" height="55.785714285714285" fill="#ffffff"/><rect x="1004.14" y="669.43" width="27.89" height="27.89" fill="#f4f4f3"/><rect x="1032.04" y="669.43" width="27.89" height="27.89" fill="#fcfcfc"/><rect x="1004.14" y="697.32" width="27.89" height="27.89" fill="#fbfbfb"/><rect x="1032.04" y="697.32" width="27.89" height="27.89" fill="#fdfcfc"/><rect x="1059.9285714285713" y="669.4285714285714" width="55.785714285714285" height="55.785714285714285" fill="#ffffff"/><rect x="1059.93" y="669.43" width="27.89" height="27.89" fill="#fefdfd"/><rect x="1087.82" y="669.43" width="27.89" height="27.89" fill="#ffffff"/><rect x="1059.93" y="697.32" width="27.89" height="27.89" fill="#fffffe"/><rect x="1087.82" y="697.32" width="27.89" height="27.89" fill="#f7f7f6"/><rect x="0" y="725.2142857142857" width="55.785714285714285" height="55.785714285714285" fill="#ffffff"/><rect x="0" y="725.21" width="27.89" height="27.89" fill="#fbfbfb"/><rect x="27.89" y="725.21" width="27.89" height="27.89" fill="#f9f9f8"/><rect x="0" y="753.11" width="27.89" height="27.89" fill="#fefefe"/><rect x="27.89" y="753.11" width="27.89" height="27.89" fill="#f9f8f7"/><rect x="55.785714285714285" y="725.2142857142857" width="55.785714285714285" height="55.785714285714285" fill="#ffffff"/><rect x="55.79" y="725.21" width="27.89" height="27.89" fill="#fefefe"/><rect x="83.68" y="725.21" width="27.89" height="27.89" fill="#ffffff"/><rect x="55.79" y="753.11" width="27.89" height="27.89" fill="#fbfbfb"/><rect x="83.68" y="753.11" width="27.89" height="27.89" fill="#fefefe"/><rect x="111.57142857142857" y="725.2142857142857" width="55.785714285714285" height="55.785714285714285" fill="#ffffff"/><rect x="111.57" y="725.21" width="27.89" height="27.89" fill="#ffffff"/><rect x="139.46" y="725.21" width="27.89" height="27.89" fill="#f9f8f8"/><rect x="111.57" y="753.11" width="27.89" height="27.89" fill="#fefefe"/><rect x="139.46" y="753.11" width="27.89" height="27.89" fill="#f7f6f6"/><rect x="167.35714285714286" y="725.2142857142857" width="55.785714285714285" height="55.785714285714285" fill="#ffffff"/><rect x="167.36" y="725.21" width="27.89" height="27.89" fill="#fcfcfc"/><rect x="195.25" y="725.21" width="27.89" height="27.89" fill="#f4f3f3"/><rect x="167.36" y="753.11" width="27.89" height="27.89" fill="#fefefe"/><rect x="195.25" y="753.11" width="27.89" height="27.89" fill="#f4f4f3"/><rect x="223.14285714285714" y="725.2142857142857" width="55.785714285714285" height="55.785714285714285" fill="#ffffff"/><rect x="223.14" y="725.21" width="27.89" height="27.89" fill="#fefefe"/><rect x="251.04" y="725.21" width="27.89" height="27.89" fill="#fefefe"/><rect x="223.14" y="753.11" width="27.89" height="27.89" fill="#f9f9f9"/><rect x="251.04" y="753.11" width="27.89" height="27.89" fill="#f4f3f2"/><rect x="278.92857142857144" y="725.2142857142857" width="55.785714285714285" height="55.785714285714285" fill="#ffffff"/><rect x="278.93" y="725.21" width="27.89" height="27.89" fill="#fbfbfb"/><rect x="306.82" y="725.21" width="27.89" height="27.89" fill="#fbfbfb"/><rect x="278.93" y="753.11" width="27.89" height="27.89" fill="#fefefd"/><rect x="306.82" y="753.11" width="27.89" height="27.89" fill="#fcfbfb"/><rect x="334.7142857142857" y="725.2142857142857" width="55.785714285714285" height="55.785714285714285" fill="#ffffff"/><rect x="334.71" y="725.21" width="27.89" height="27.89" fill="#fcfcfc"/><rect x="362.61" y="725.21" width="27.89" height="27.89" fill="#fdfdfd"/><rect x="334.71" y="753.11" width="27.89" height="27.89" fill="#f9f9f8"/><rect x="362.61" y="753.11" width="27.89" height="27.89" fill="#fbfbfa"/><rect x="390.5" y="725.2142857142857" width="55.785714285714285" height="55.785714285714285" fill="#ffffff"/><rect x="390.5" y="725.21" width="27.89" height="27.89" fill="#fcfcfc"/><rect x="418.39" y="725.21" width="27.89" height="27.89" fill="#f6f5f5"/><rect x="390.5" y="753.11" width="27.89" height="27.89" fill="#fcfcfc"/><rect x="418.39" y="753.11" width="27.89" height="27.89" fill="#fbfbfb"/><rect x="446.2857142857143" y="725.2142857142857" width="55.785714285714285" height="55.785714285714285" fill="#ffffff"/><rect x="446.29" y="725.21" width="27.89" height="27.89" fill="#fafafa"/><rect x="474.18" y="725.21" width="27.89" height="27.89" fill="#f5f4f3"/><rect x="446.29" y="753.11" width="27.89" height="27.89" fill="#f3f2f1"/><rect x="474.18" y="753.11" width="27.89" height="27.89" fill="#fcfcfc"/><rect x="502.07142857142856" y="725.2142857142857" width="55.785714285714285" height="55.785714285714285" fill="#ffffff"/><rect x="502.07" y="725.21" width="27.89" height="27.89" fill="#fdfcfc"/><rect x="529.96" y="725.21" width="27.89" height="27.89" fill="#fcfcfc"/><rect x="502.07" y="753.11" width="27.89" height="27.89" fill="#f7f6f6"/><rect x="529.96" y="753.11" width="27.89" height="27.89" fill="#fcfcfb"/><rect x="557.8571428571429" y="725.2142857142857" width="55.785714285714285" height="55.785714285714285" fill="#ffffff"/><rect x="557.86" y="725.21" width="27.89" height="27.89" fill="#f4f4f3"/><rect x="585.75" y="725.21" width="27.89" height="27.89" fill="#f8f7f7"/><rect x="557.86" y="753.11" width="27.89" height="27.89" fill="#fefefe"/><rect x="585.75" y="753.11" width="27.89" height="27.89" fill="#fefefe"/><rect x="613.6428571428571" y="725.2142857142857" width="55.785714285714285" height="55.785714285714285" fill="#ffffff"/><rect x="613.64" y="725.21" width="27.89" height="27.89" fill="#f7f6f5"/><rect x="641.54" y="725.21" width="27.89" height="27.89" fill="#fefefe"/><rect x="613.64" y="753.11" width="27.89" height="27.89" fill="#f4f3f2"/><rect x="641.54" y="753.11" width="27.89" height="27.89" fill="#fbfafa"/><rect x="669.4285714285714" y="725.2142857142857" width="55.785714285714285" height="55.785714285714285" fill="#ffffff"/><rect x="669.43" y="725.21" width="27.89" height="27.89" fill="#fefefe"/><rect x="697.32" y="725.21" width="27.89" height="27.89" fill="#f5f4f4"/><rect x="669.43" y="753.11" width="27.89" height="27.89" fill="#fafaf9"/><rect x="697.32" y="753.11" width="27.89" height="27.89" fill="#fdfdfd"/><rect x="725.2142857142857" y="725.2142857142857" width="55.785714285714285" height="55.785714285714285" fill="#ffffff"/><rect x="725.21" y="725.21" width="27.89" height="27.89" fill="#fbfbfb"/><rect x="753.11" y="725.21" width="27.89" height="27.89" fill="#fafafa"/><rect x="725.21" y="753.11" width="27.89" height="27.89" fill="#fefefe"/><rect x="753.11" y="753.11" width="27.89" height="27.89" fill="#fafafa"/><rect x="781" y="725.2142857142857" width="55.785714285714285" height="55.785714285714285" fill="#ffffff"/><rect x="781" y="725.21" width="27.89" height="27.89" fill="#f3f2f1"/><rect x="808.89" y="725.21" width="27.89" height="27.89" fill="#fefefe"/><rect x="781" y="753.11" width="27.89" height="27.89" fill="#fcfcfc"/><rect x="808.89" y="753.11" width="27.89" height="27.89" fill="#fefefe"/><rect x="836.7857142857142" y="725.2142857142857" width="55.785714285714285" height="55.785714285714285" fill="#ffffff"/><rect x="836.79" y="725.21" width="27.89" height="27.89" fill="#fbfafa"/><rect x="864.68" y="725.21" width="27.89" height="27.89" fill="#fbfbfb"/><rect x="836.79" y="753.11" width="27.89" height="27.89" fill="#fefefe"/><rect x="864.68" y="753.11" width="27.89" height="27.89" fill="#ffffff"/><rect x="892.5714285714286" y="725.2142857142857" width="55.785714285714285" height="55.785714285714285" fill="#ffffff"/><rect x="892.57" y="725.21" width="27.89" height="27.89" fill="#fefefe"/><rect x="920.46" y="725.21" width="27.89" height="27.89" fill="#fdfdfd"/><rect x="892.57" y="753.11" width="27.89" height="27.89" fill="#fdfdfd"/><rect x="920.46" y="753.11" width="27.89" height="27.89" fill="#fefefe"/><rect x="948.3571428571429" y="725.2142857142857" width="55.785714285714285" height="55.785714285714285" fill="#ffffff"/><rect x="948.36" y="725.21" width="27.89" height="27.89" fill="#f5f4f3"/><rect x="976.25" y="725.21" width="27.89" height="27.89" fill="#fbfbfb"/><rect x="948.36" y="753.11" width="27.89" height="27.89" fill="#f3f2f1"/><rect x="976.25" y="753.11" width="27.89" height="27.89" fill="#fcfcfc"/><rect x="1004.1428571428571" y="725.2142857142857" width="55.785714285714285" height="55.785714285714285" fill="#ffffff"/><rect x="1004.14" y="725.21" width="27.89" height="27.89" fill="#fdfdfd"/><rect x="1032.04" y="725.21" width="27.89" height="27.89" fill="#f8f8f7"/><rect x="1004.14" y="753.11" width="27.89" height="27.89" fill="#fcfcfc"/><rect x="1032.04" y="753.11" width="27.89" height="27.89" fill="#f8f8f7"/><rect x="1059.9285714285713" y="725.2142857142857" width="55.785714285714285" height="55.785714285714285" fill="#ffffff"/><rect x="1059.93" y="725.21" width="27.89" height="27.89" fill="#fefefe"/><rect x="1087.82" y="725.21" width="27.89" height="27.89" fill="#fdfdfd"/><rect x="1059.93" y="753.11" width="27.89" height="27.89" fill="#fefefe"/><rect x="1087.82" y="753.11" width="27.89" height="27.89" fill="#fefefe"/></g></svg>